<svg xmlns="http://www.w3.org/2000/svg" version="1.1" xmlns:xlink="http://www.w3.org/1999/xlink" xmlns:svgjs="http://svgjs.dev/svgjs" width="1000" height="623" viewBox="0 0 1000 623"><g transform="matrix(1,0,0,1,-0.6060606060606233,114.87317748333533)"><svg viewBox="0 0 396 247" data-background-color="#046380" preserveAspectRatio="xMidYMid meet" height="623" width="1000" xmlns="http://www.w3.org/2000/svg" xmlns:xlink="http://www.w3.org/1999/xlink"><g id="tight-bounds" transform="matrix(1,0,0,1,0.2400000000000091,-0.09999999999999432)"><svg viewBox="0 0 395.52 247.2" height="247.2" width="395.52"><g><svg></svg></g><g><svg viewBox="0 0 395.52 247.2" height="247.2" width="395.52"><g transform="matrix(1,0,0,1,75.54432,66.5775235219111)"><svg viewBox="0 0 244.43135999999998 114.04495295617777" height="114.04495295617777" width="244.43135999999998"><g><svg viewBox="0 0 245.65351679999995 114.61517772095864" height="114.04495295617777" width="244.43135999999998"><g><rect width="245.65351679999995" height="3.510511513950049" x="0" y="62.98746313355828" fill="#ffffff" opacity="1" stroke-width="0" stroke="transparent" fill-opacity="1" class="rect-o-0" data-fill-palette-color="secondary" rx="1%" id="o-0" data-palette-color="#ffffff"></rect></g><g transform="matrix(1,0,0,1,0.6110783999999825,75.68779536465506)"><svg viewBox="0 0 244.43135999999998 38.92738235630358" height="38.92738235630358" width="244.43135999999998"><g id="textblocktransform"><svg viewBox="0 0 244.43135999999998 38.92738235630358" height="38.92738235630358" width="244.43135999999998" id="textblock"><g><svg viewBox="0 0 244.43135999999998 38.92738235630358" height="38.92738235630358" width="244.43135999999998"><g transform="matrix(1,0,0,1,0,0)"><svg width="244.43135999999998" viewBox="1.7000000476837158 -36.150001525878906 314.8699951171875 50.150001525878906" height="38.92738235630358" data-palette-color="#ffffff"><path d="M12.25 4.35L12.25 4.35Q11.45 4.35 10.33 4.03 9.2 3.7 8.33 2.73 7.45 1.75 7.45-0.1L7.45-0.1Q7.45-1.65 8.05-3.85 8.65-6.05 9.55-8.75 10.45-11.45 11.35-14.58 12.25-17.7 12.85-21.08 13.45-24.45 13.45-27.95L13.45-27.95Q13.45-29.7 13.2-31.05 12.95-32.4 12.3-33.15 11.65-33.9 10.4-33.9L10.4-33.9Q9.1-33.9 8.2-33.15 7.3-32.4 6.73-31.2 6.15-30 5.88-28.7 5.6-27.4 5.6-26.25L5.6-26.25Q5.6-25.4 5.78-24.6 5.95-23.8 6.35-23L6.35-23Q3.9-23 2.8-24.15 1.7-25.3 1.7-27L1.7-27Q1.7-28.5 2.45-30.1 3.2-31.7 4.53-33.02 5.85-34.35 7.63-35.18 9.4-36 11.4-36L11.4-36Q14.8-36 16.55-33.52 18.3-31.05 18.3-26.75L18.3-26.75Q18.3-24 17.68-21 17.05-18 16.15-14.98 15.25-11.95 14.33-9.1 13.4-6.25 12.78-3.83 12.15-1.4 12.15 0.4L12.15 0.4Q12.15 1.2 12.38 1.65 12.6 2.1 13.35 2.1L13.35 2.1Q14.8 2.1 16.63 0.75 18.45-0.6 20.4-2.93 22.35-5.25 24.2-8.2 26.05-11.15 27.55-14.35 29.05-17.55 29.93-20.7 30.8-23.85 30.8-26.5L30.8-26.5Q30.8-29.15 29.85-30.55 28.9-31.95 27.45-32.45L27.45-32.45Q28.15-33.95 29.18-34.63 30.2-35.3 31-35.3L31-35.3Q32.35-35.3 33.55-33.6 34.75-31.9 34.75-28.8L34.75-28.8Q34.75-26.1 33.73-22.63 32.7-19.15 30.9-15.43 29.1-11.7 26.83-8.18 24.55-4.65 22.03-1.83 19.5 1 17 2.68 14.5 4.35 12.25 4.35ZM35 2.35L35 2.35Q33.35 2.35 32.12 1.25 30.9 0.15 30.9-2.05L30.9-2.05Q30.9-3.8 31.7-5.85 32.5-7.9 33.9-9.9 35.3-11.9 37.1-13.53 38.9-15.15 40.95-16.15 43-17.15 45.05-17.15L45.05-17.15Q47.2-17.15 48.7-16.05 50.2-14.95 50.2-13.15L50.2-13.15Q50.2-11.8 49.25-11.2 48.3-10.6 47-10.85L47-10.85Q47.1-11.3 47.17-11.75 47.25-12.2 47.25-12.7L47.25-12.7Q47.25-13.7 46.85-14.5 46.45-15.3 45.15-15.3L45.15-15.3Q43.75-15.3 42.3-14.35 40.85-13.4 39.52-11.88 38.2-10.35 37.15-8.53 36.1-6.7 35.5-4.95 34.9-3.2 34.9-1.8L34.9-1.8Q34.9-0.2 36.05-0.2L36.05-0.2Q37.2-0.2 38.6-1.33 40-2.45 41.42-4.15 42.85-5.85 44.15-7.63 45.45-9.4 46.4-10.65L46.4-10.65Q46.55-10.9 46.8-10.9L46.8-10.9Q47-10.85 47.57-10.68 48.15-10.5 48.65-10.15 49.15-9.8 49.15-9.25L49.15-9.25Q49.15-8.75 48.72-7.98 48.3-7.2 47.72-6.28 47.15-5.35 46.72-4.42 46.3-3.5 46.3-2.65L46.3-2.65Q46.3-2 46.65-1.43 47-0.85 47.8-0.85L47.8-0.85Q49-0.85 51.17-2.63 53.35-4.4 55.6-8.65L55.6-8.65 56.55-7.7Q55.35-5 53.67-2.93 52-0.85 50.15 0.33 48.3 1.5 46.4 1.5L46.4 1.5Q44.35 1.5 43.35 0.2 42.35-1.1 42.25-2.6L42.25-2.6Q42.25-2.7 42.25-2.75 42.25-2.8 42.25-2.85L42.25-2.85Q40.25-0.45 38.57 0.95 36.9 2.35 35 2.35ZM58.4 1.5L58.4 1.5Q56.2 1.5 55.1 0.2 54-1.1 54-2.95L54-2.95Q54-4.1 54.4-5.85 54.8-7.6 55.52-9.53 56.25-11.45 57.2-13.15 58.15-14.85 59.25-15.93 60.35-17 61.45-17L61.45-17Q62.05-17 62.5-16.65 62.95-16.3 62.95-15.55L62.95-15.55Q62.95-14.9 62.17-13.6 61.4-12.3 60.37-10.6 59.35-8.9 58.57-7.08 57.8-5.25 57.8-3.6L57.8-3.6Q57.8-2 58.37-1.48 58.95-0.95 60.05-0.95L60.05-0.95Q61.75-0.95 63.75-2.65 65.75-4.35 67.9-8.6L67.9-8.6 68.65-7.8Q66.9-3.4 64.2-0.95 61.5 1.5 58.4 1.5ZM64.3-21.05L64.3-21.05Q63.35-21.05 62.57-21.53 61.8-22 61.8-23L61.8-23Q61.8-24.2 63.1-25.05 64.4-25.9 65.8-25.9L65.8-25.9Q66.7-25.9 67.32-25.5 67.95-25.1 67.95-24.05L67.95-24.05Q67.95-23 66.8-22.03 65.65-21.05 64.3-21.05ZM71.84 3.65L71.84 3.65Q68.99 3.65 67.52 1.88 66.04 0.1 66.04-3L66.04-3Q66.04-5.45 66.89-8.8 67.74-12.15 69.14-15.83 70.54-19.5 72.27-23.03 73.99-26.55 75.79-29.43 77.59-32.3 79.19-34 80.79-35.7 81.94-35.7L81.94-35.7Q82.94-35.7 83.44-34.55 83.94-33.4 83.99-32.25L83.99-32.25Q83.99-30.85 83.39-28.85 82.79-26.85 81.69-24.6 80.59-22.35 79.14-20.15 77.69-17.95 75.97-16.15 74.24-14.35 72.39-13.3L72.39-13.3Q72.04-12.65 71.52-11.05 70.99-9.45 70.57-7.4 70.14-5.35 70.14-3.3L70.14-3.3Q70.14-1.3 70.72 0.13 71.29 1.55 72.74 1.55L72.74 1.55Q74.04 1.55 75.54 0.35 77.04-0.85 77.99-2.55L77.99-2.55Q76.14-3.55 75.19-5.35 74.24-7.15 74.24-9.15L74.24-9.15Q74.24-11.6 75.57-13.1 76.89-14.6 78.79-14.6L78.79-14.6Q80.39-14.6 81.44-13.38 82.49-12.15 82.49-9.6L82.49-9.6Q82.49-8.15 82.12-6.53 81.74-4.9 80.99-3.3L80.99-3.3Q81.24-3.3 81.42-3.28 81.59-3.25 81.89-3.25L81.89-3.25Q83.64-3.25 84.89-4.2 86.14-5.15 86.99-6.45 87.84-7.75 88.34-8.8L88.34-8.8 89.09-7.75Q87.84-4.8 86.02-3.25 84.19-1.7 81.24-1.7L81.24-1.7Q80.99-1.7 80.72-1.7 80.44-1.7 80.19-1.75L80.19-1.75Q78.79 0.5 76.72 2.08 74.64 3.65 71.84 3.65ZM78.84-4.2L78.84-4.2Q79.29-5.2 79.52-6.23 79.74-7.25 79.74-8.45L79.74-8.45Q79.74-10.25 79.32-11.1 78.89-11.95 78.29-11.95L78.29-11.95Q77.64-11.95 77.17-11.05 76.69-10.15 76.69-8.9L76.69-8.9Q76.69-7.85 77.14-6.45 77.59-5.05 78.84-4.2ZM73.34-16.45L73.34-16.45Q74.59-17.6 75.77-19.13 76.94-20.65 77.97-22.33 78.99-24 79.77-25.63 80.54-27.25 81.04-28.58 81.54-29.9 81.64-30.7L81.64-30.7Q81.64-30.8 81.64-30.88 81.64-30.95 81.64-31L81.64-31Q81.19-30.85 80.17-29.55 79.14-28.25 77.87-26.18 76.59-24.1 75.39-21.58 74.19-19.05 73.34-16.45ZM89.34 1.9L89.34 1.9Q88.24 1.9 87.77 0.2 87.29-1.5 87.29-3.75L87.29-3.75Q87.29-6.05 88.07-9.3 88.84-12.55 90.17-16.15 91.49-19.75 93.12-23.2 94.74-26.65 96.47-29.48 98.19-32.3 99.77-34 101.34-35.7 102.54-35.7L102.54-35.7Q103.59-35.7 104.14-34.55 104.69-33.4 104.69-32.15L104.69-32.15Q104.69-30.8 104.07-28.83 103.44-26.85 102.34-24.6 101.24-22.35 99.77-20.18 98.29-18 96.57-16.2 94.84-14.4 92.99-13.3L92.99-13.3Q92.34-11.6 91.97-10.13 91.59-8.65 91.44-7.35 91.29-6.05 91.29-4.8L91.29-4.8Q91.29-4.55 91.32-4.28 91.34-4 91.34-3.75L91.34-3.75Q91.54-4.05 91.99-5.3 92.44-6.55 93.22-8.22 93.99-9.9 95.14-11.53 96.29-13.15 97.84-14.23 99.39-15.3 101.39-15.3L101.39-15.3Q103.09-15.3 104.04-14.53 104.99-13.75 105.39-12.63 105.79-11.5 105.79-10.35L105.79-10.35Q105.79-8.75 105.27-7.35 104.74-5.95 104.22-4.73 103.69-3.5 103.69-2.4L103.69-2.4Q103.69-1.5 104.09-1.15 104.49-0.8 105.04-0.8L105.04-0.8Q106.14-0.8 107.62-1.9 109.09-3 110.57-4.83 112.04-6.65 113.09-8.85L113.09-8.85 113.89-8Q112.74-5.5 111.19-3.4 109.64-1.3 107.79-0.05 105.94 1.2 103.79 1.2L103.79 1.2Q101.89 1.2 100.89 0.2 99.89-0.8 99.89-2.3L99.89-2.3Q99.89-3.35 100.27-4.63 100.64-5.9 100.99-7.2 101.34-8.5 101.34-9.55L101.34-9.55Q101.34-10.75 100.82-11.2 100.29-11.65 99.54-11.65L99.54-11.65Q98.29-11.65 97.29-10.68 96.29-9.7 95.49-8.15 94.69-6.6 93.99-4.88 93.29-3.15 92.59-1.6 91.89-0.05 91.12 0.93 90.34 1.9 89.34 1.9ZM94.04-16.5L94.04-16.5Q95.34-17.65 96.54-19.25 97.74-20.85 98.77-22.58 99.79-24.3 100.57-25.93 101.34-27.55 101.79-28.85 102.24-30.15 102.29-30.85L102.29-30.85Q102.29-30.9 102.29-30.93 102.29-30.95 102.29-31L102.29-31Q101.99-31 101.02-29.78 100.04-28.55 98.77-26.48 97.49-24.4 96.22-21.8 94.94-19.2 94.04-16.5ZM114.54 2.35L114.54 2.35Q112.89 2.35 111.66 1.25 110.44 0.15 110.44-2.05L110.44-2.05Q110.44-3.8 111.24-5.85 112.04-7.9 113.44-9.9 114.84-11.9 116.64-13.53 118.44-15.15 120.49-16.15 122.54-17.15 124.59-17.15L124.59-17.15Q126.74-17.15 128.24-16.05 129.74-14.95 129.74-13.15L129.74-13.15Q129.74-11.8 128.79-11.2 127.84-10.6 126.54-10.85L126.54-10.85Q126.64-11.3 126.71-11.75 126.79-12.2 126.79-12.7L126.79-12.7Q126.79-13.7 126.39-14.5 125.99-15.3 124.69-15.3L124.69-15.3Q123.29-15.3 121.84-14.35 120.39-13.4 119.06-11.88 117.74-10.35 116.69-8.53 115.64-6.7 115.04-4.95 114.44-3.2 114.44-1.8L114.44-1.8Q114.44-0.2 115.59-0.2L115.59-0.2Q116.74-0.2 118.14-1.33 119.54-2.45 120.96-4.15 122.39-5.85 123.69-7.63 124.99-9.4 125.94-10.65L125.94-10.65Q126.09-10.9 126.34-10.9L126.34-10.9Q126.54-10.85 127.11-10.68 127.69-10.5 128.19-10.15 128.69-9.8 128.69-9.25L128.69-9.25Q128.69-8.75 128.26-7.98 127.84-7.2 127.26-6.28 126.69-5.35 126.26-4.42 125.84-3.5 125.84-2.65L125.84-2.65Q125.84-2 126.19-1.43 126.54-0.85 127.34-0.85L127.34-0.85Q128.54-0.85 130.71-2.63 132.89-4.4 135.14-8.65L135.14-8.65 136.09-7.7Q134.89-5 133.21-2.93 131.54-0.85 129.69 0.33 127.84 1.5 125.94 1.5L125.94 1.5Q123.89 1.5 122.89 0.2 121.89-1.1 121.79-2.6L121.79-2.6Q121.79-2.7 121.79-2.75 121.79-2.8 121.79-2.85L121.79-2.85Q119.79-0.45 118.11 0.95 116.44 2.35 114.54 2.35ZM137.64 1.95L137.64 1.95Q135.79 1.95 135.06 0.28 134.34-1.4 134.34-4.05L134.34-4.05Q134.34-4.6 134.39-6.03 134.44-7.45 134.54-10L134.54-10Q134.59-11.5 134.86-12.05 135.14-12.6 136.44-12.6L136.44-12.6Q137.64-12.6 137.86-12.13 138.09-11.65 138.09-10.2L138.09-10.2Q138.09-8.7 137.96-7 137.84-5.3 137.84-3.7L137.84-3.7Q137.84-2.15 137.99-1.43 138.14-0.7 138.74-0.7L138.74-0.7Q139.64-0.7 140.69-1.68 141.74-2.65 142.81-4.17 143.89-5.7 144.86-7.48 145.84-9.25 146.59-10.9L146.59-10.9Q146.69-14.3 147.39-15.45 148.09-16.6 149.19-16.6L149.19-16.6Q150.44-16.6 150.89-15.8 151.34-15 151.34-14.4L151.34-14.4Q151.34-13.65 150.94-13.05 150.54-12.45 150.14-11.4 149.74-10.35 149.74-8.2L149.74-8.2Q149.74-7.5 149.86-6.68 149.99-5.85 150.46-5.28 150.94-4.7 151.89-4.7L151.89-4.7Q152.89-4.7 153.81-5.53 154.74-6.35 155.79-8.4L155.79-8.4 156.34-7.95Q155.19-5.2 153.76-4.1 152.34-3 151.04-3L151.04-3Q149.39-3 148.36-4.33 147.34-5.65 146.79-7.65L146.79-7.65Q145.59-5.4 144.06-3.2 142.54-1 140.89 0.48 139.24 1.95 137.64 1.95ZM194.53 4.35L194.53 4.35Q193.33 4.35 191.81 3.13 190.28 1.9 188.56-0.1 186.83-2.1 185.18-4.5 183.53-6.9 182.06-9.33 180.58-11.75 179.53-13.75L179.53-13.75 174.98 0.95Q174.63 2.15 173.71 2.68 172.78 3.2 171.68 3.33 170.58 3.45 169.58 3.45L169.58 3.45Q170.28 1.9 170.98 0.13 171.68-1.65 172.53-4.15 173.38-6.65 174.61-10.2 175.83-13.75 177.58-18.8 179.33-23.85 181.83-30.8L181.83-30.8Q181.93-31.15 182.18-31.78 182.43-32.4 182.43-32.95L182.43-32.95Q182.43-33.4 182.21-33.65 181.98-33.9 181.43-33.9L181.43-33.9Q180.23-33.9 179.18-32.98 178.13-32.05 177.28-30.68 176.43-29.3 175.96-27.85 175.48-26.4 175.48-25.3L175.48-25.3Q175.48-24.15 175.98-23L175.98-23Q173.83-23 172.91-23.93 171.98-24.85 171.98-26.25L171.98-26.25Q171.98-27.95 173.03-29.68 174.08-31.4 175.71-32.83 177.33-34.25 179.16-35.13 180.98-36 182.53-36L182.53-36Q184.23-36 184.76-35.08 185.28-34.15 185.28-33.1L185.28-33.1Q185.28-32.55 185.18-32.05 185.08-31.55 184.93-31.1L184.93-31.1 181.23-19.1Q181.78-19.45 182.51-20 183.23-20.55 184.68-21.65L184.68-21.65Q187.48-23.85 190.08-26.25 192.68-28.65 194.88-31.18 197.08-33.7 198.68-36.15L198.68-36.15Q199.28-35.6 199.48-34.77 199.68-33.95 199.68-33.45L199.68-33.45Q199.68-31.9 198.41-30.08 197.13-28.25 195.06-26.3 192.98-24.35 190.53-22.45 188.08-20.55 185.63-18.9 183.18-17.25 181.23-16L181.23-16Q182.83-13.55 184.31-11.35 185.78-9.15 187.58-7.03 189.38-4.9 191.81-2.63 194.23-0.35 197.63 2.25L197.63 2.25Q197.18 3.1 196.28 3.73 195.38 4.35 194.53 4.35ZM202.08 2.35L202.08 2.35Q200.43 2.35 199.2 1.25 197.98 0.15 197.98-2.05L197.98-2.05Q197.98-3.8 198.78-5.85 199.58-7.9 200.98-9.9 202.38-11.9 204.18-13.53 205.98-15.15 208.03-16.15 210.08-17.15 212.13-17.15L212.13-17.15Q214.28-17.15 215.78-16.05 217.28-14.95 217.28-13.15L217.28-13.15Q217.28-11.8 216.33-11.2 215.38-10.6 214.08-10.85L214.08-10.85Q214.18-11.3 214.25-11.75 214.33-12.2 214.33-12.7L214.33-12.7Q214.33-13.7 213.93-14.5 213.53-15.3 212.23-15.3L212.23-15.3Q210.83-15.3 209.38-14.35 207.93-13.4 206.6-11.88 205.28-10.35 204.23-8.53 203.18-6.7 202.58-4.95 201.98-3.2 201.98-1.8L201.98-1.8Q201.98-0.2 203.13-0.2L203.13-0.2Q204.28-0.2 205.68-1.33 207.08-2.45 208.5-4.15 209.93-5.85 211.23-7.63 212.53-9.4 213.48-10.65L213.48-10.65Q213.63-10.9 213.88-10.9L213.88-10.9Q214.08-10.85 214.65-10.68 215.23-10.5 215.73-10.15 216.23-9.8 216.23-9.25L216.23-9.25Q216.23-8.75 215.8-7.98 215.38-7.2 214.8-6.28 214.23-5.35 213.8-4.42 213.38-3.5 213.38-2.65L213.38-2.65Q213.38-2 213.73-1.43 214.08-0.85 214.88-0.85L214.88-0.85Q216.08-0.85 218.25-2.63 220.43-4.4 222.68-8.65L222.68-8.65 223.63-7.7Q222.43-5 220.75-2.93 219.08-0.85 217.23 0.33 215.38 1.5 213.48 1.5L213.48 1.5Q211.43 1.5 210.43 0.2 209.43-1.1 209.33-2.6L209.33-2.6Q209.33-2.7 209.33-2.75 209.33-2.8 209.33-2.85L209.33-2.85Q207.33-0.45 205.65 0.95 203.98 2.35 202.08 2.35ZM224.93 1.5L224.93 1.5Q223.98 1.5 223 1.03 222.03 0.55 221.35-0.45 220.68-1.45 220.68-3L220.68-3Q220.68-4.65 221.48-6.7 222.28-8.75 223.65-10.8 225.03-12.85 226.85-14.55 228.68-16.25 230.73-17.3 232.78-18.35 234.88-18.35L234.88-18.35Q236.03-18.35 236.68-17.98 237.33-17.6 237.33-16.75L237.33-16.75Q237.33-16.5 237.23-16.18 237.13-15.85 236.73-15.6L236.73-15.6Q236.53-15.9 236.03-16.03 235.53-16.15 234.98-16.15L234.98-16.15Q233.33-16.15 231.83-15.23 230.33-14.3 229.08-12.85 227.83-11.4 226.9-9.7 225.98-8 225.48-6.43 224.98-4.85 224.98-3.7L224.98-3.7Q224.98-2.75 225.38-2.18 225.78-1.6 226.58-1.6L226.58-1.6Q227.93-1.6 229.8-3.18 231.68-4.75 233.65-7.73 235.63-10.7 237.23-14.85L237.23-14.85Q238.33-17.7 239.53-20.68 240.73-23.65 241.93-26.4 243.13-29.15 244.3-31.3 245.48-33.45 246.55-34.73 247.63-36 248.53-36L248.53-36Q249.08-36 249.5-35.58 249.93-35.15 249.93-34.5L249.93-34.5Q249.93-33.65 249.1-31.78 248.28-29.9 247-27.3 245.73-24.7 244.25-21.68 242.78-18.65 241.5-15.48 240.23-12.3 239.4-9.22 238.58-6.15 238.58-3.45L238.58-3.45Q238.58-2.25 238.8-1.83 239.03-1.4 239.58-1.4L239.58-1.4Q240.68-1.4 242.03-2.25 243.38-3.1 244.78-4.78 246.18-6.45 247.33-8.8L247.33-8.8 248.28-8Q247.18-5.25 245.48-3.15 243.78-1.05 241.83 0.13 239.88 1.3 237.98 1.3L237.98 1.3Q235.93 1.3 235.13 0 234.33-1.3 234.33-3.05L234.33-3.05Q234.33-3.85 234.45-4.67 234.58-5.5 234.73-6.3L234.73-6.3Q233.18-4.05 231.45-2.27 229.73-0.5 228.08 0.5 226.43 1.5 224.93 1.5ZM260.57 1.9L260.57 1.9Q258.87 1.9 258.3 0.43 257.72-1.05 257.62-3.1L257.62-3.1Q257.67-3.7 257.7-4.75 257.72-5.8 257.77-6.5L257.77-6.5Q256.72-4.6 255.47-2.75 254.22-0.9 252.82 0.3 251.42 1.5 249.87 1.5L249.87 1.5Q248.17 1.5 247.07-0.03 245.97-1.55 245.97-3.7L245.97-3.7Q245.97-5.15 246.45-7.05 246.92-8.95 247.65-10.75 248.37-12.55 249.15-13.75 249.92-14.95 250.52-14.95L250.52-14.95Q250.87-14.95 251.75-14.55 252.62-14.15 252.82-13.5L252.82-13.5Q252.27-12.7 251.5-11.05 250.72-9.4 250.15-7.53 249.57-5.65 249.57-4.1L249.57-4.1Q249.57-3.8 249.65-3.08 249.72-2.35 250.07-1.75 250.42-1.15 251.12-1.15L251.12-1.15Q252.22-1.15 253.45-2.5 254.67-3.85 255.92-5.9 257.17-7.95 258.27-10.1L258.27-10.1Q258.72-12.25 259.02-13.2 259.32-14.15 259.65-14.4 259.97-14.65 260.42-14.65L260.42-14.65Q261.37-14.65 261.9-14.28 262.42-13.9 262.42-13.2L262.42-13.2Q262.42-13.15 262.32-12.78 262.22-12.4 262.17-12.3L262.17-12.3Q261.87-11.25 261.62-9.78 261.37-8.3 261.22-6.63 261.07-4.95 261.07-3.25L261.07-3.25Q261.07-2.05 261.22-1.38 261.37-0.7 261.97-0.7L261.97-0.7Q262.67-0.7 263.6-1.55 264.52-2.4 265.55-3.8 266.57-5.2 267.55-6.88 268.52-8.55 269.32-10.25L269.32-10.25Q269.32-12.85 269.7-14.2 270.07-15.55 270.7-16.07 271.32-16.6 272.07-16.6L272.07-16.6Q273.32-16.6 273.8-15.8 274.27-15 274.27-14.45L274.27-14.45Q274.27-13.95 274.02-13.53 273.77-13.1 273.62-12.75L273.62-12.75Q273.27-12 272.95-10.95 272.62-9.9 272.62-8.3L272.62-8.3Q272.62-7.45 272.8-6.58 272.97-5.7 273.45-5.15 273.92-4.6 274.82-4.6L274.82-4.6Q275.72-4.6 276.65-5.4 277.57-6.2 278.67-8.4L278.67-8.4 279.62-7.65Q278.52-5.05 277.12-4.08 275.72-3.1 274.42-3.1L274.42-3.1Q272.77-3.1 271.62-4.3 270.47-5.5 269.82-7.25L269.82-7.25Q268.57-5.1 267.05-2.98 265.52-0.85 263.87 0.53 262.22 1.9 260.57 1.9ZM283.37 2.2L283.37 2.2Q280.17 2.2 278.45 0.48 276.72-1.25 276.72-3.85L276.72-3.85Q276.72-6.05 277.85-8.53 278.97-11 280.87-13.18 282.77-15.35 285.07-16.7 287.37-18.05 289.67-18.05L289.67-18.05Q290.97-18.05 292.15-17.38 293.32-16.7 293.32-14.7L293.32-14.7Q293.32-12.8 292.22-11.15 291.12-9.5 289.27-8.2 287.42-6.9 285.2-6.08 282.97-5.25 280.72-5L280.72-5Q280.67-4.8 280.65-4.58 280.62-4.35 280.62-3.85L280.62-3.85Q280.62-3.6 280.7-2.98 280.77-2.35 281.12-1.65 281.47-0.95 282.27-0.45 283.07 0.05 284.47 0.05L284.47 0.05Q286.57 0.05 288.7-1.13 290.82-2.3 292.7-4.25 294.57-6.2 295.82-8.6L295.82-8.6 296.82-7.8Q295.47-4.8 293.35-2.55 291.22-0.3 288.65 0.95 286.07 2.2 283.37 2.2ZM281.27-6.85L281.27-6.85Q282.57-7 284.17-7.75 285.77-8.5 287.25-9.65 288.72-10.8 289.67-12.18 290.62-13.55 290.62-14.95L290.62-14.95Q290.62-15.5 290.42-15.7 290.22-15.9 289.77-15.9L289.77-15.9Q288.62-15.9 287.37-15.08 286.12-14.25 284.92-12.93 283.72-11.6 282.77-10 281.82-8.4 281.27-6.85ZM297.02 14L297.02 14Q295.77 14 294.69 13.23 293.62 12.45 293.62 10.75L293.62 10.75Q293.62 9.15 294.57 7.88 295.52 6.6 297.02 5.53 298.52 4.45 300.24 3.58 301.97 2.7 303.57 1.95L303.57 1.95Q304.12 0.5 304.79-1.73 305.47-3.95 305.97-5.85L305.97-5.85Q304.42-3.7 302.67-2.05 300.92-0.4 298.77-0.4L298.77-0.4Q297.87-0.4 296.87-0.78 295.87-1.15 295.19-2.08 294.52-3 294.52-4.55L294.52-4.55Q294.52-5.85 294.99-7.7 295.47-9.55 296.19-11.33 296.92-13.1 297.72-14.28 298.52-15.45 299.12-15.45L299.12-15.45Q299.42-15.45 299.99-15.23 300.57-15 301.12-14.63 301.67-14.25 301.82-13.8L301.82-13.8Q301.37-13.2 300.82-12.08 300.27-10.95 299.77-9.58 299.27-8.2 298.94-6.9 298.62-5.6 298.62-4.65L298.62-4.65Q298.62-3.9 298.92-3.35 299.22-2.8 300.07-2.8L300.07-2.8Q301.17-2.8 302.34-3.7 303.52-4.6 304.64-6 305.77-7.4 306.67-8.85L306.67-8.85Q306.77-9.2 306.87-9.95 306.97-10.7 307.22-11.5L307.22-11.5Q307.47-12.35 308.09-13.05 308.72-13.75 309.87-13.75L309.87-13.75Q310.27-13.75 310.62-13.7 310.97-13.65 311.47-13.55L311.47-13.55Q311.47-12.8 310.94-10.63 310.42-8.45 309.57-5.6 308.72-2.75 307.67 0.1L307.67 0.1Q309.77-0.75 312.04-2.73 314.32-4.7 315.72-8.35L315.72-8.35 316.57-7.65Q315.82-5.15 314.29-3.3 312.77-1.45 310.87-0.15 308.97 1.15 307.02 2L307.02 2Q305.67 5.25 304.09 8 302.52 10.75 300.77 12.38 299.02 14 297.02 14ZM296.52 12.15L296.52 12.15Q297.47 12.15 299.17 10.15 300.87 8.15 302.62 4.15L302.62 4.15Q301.02 4.95 299.39 6.03 297.77 7.1 296.67 8.3 295.57 9.5 295.57 10.75L295.57 10.75Q295.57 11.25 295.79 11.7 296.02 12.15 296.52 12.15Z" opacity="1" transform="matrix(1,0,0,1,0,0)" fill="#ffffff" class="undefined-text-0" data-fill-palette-color="primary" id="text-0"></path></svg></g></svg></g></svg></g></svg></g><g transform="matrix(1,0,0,1,84.2948517841583,0)"><svg viewBox="0 0 77.06381323168335 53.797642416411556" height="53.797642416411556" width="77.06381323168335"><g><svg xmlns="http://www.w3.org/2000/svg" xmlns:xlink="http://www.w3.org/1999/xlink" version="1.1" x="7.9999999999999964" y="0" viewBox="6.300000190734863 11.5 87.39999389648438 77" style="enable-background:new 0 0 100 100;" xml:space="preserve" height="53.797642416411556" width="61.06381323168336" class="icon-icon-0" data-fill-palette-color="accent" id="icon-0"><path d="M72.3 12.3L72.3 12.3 72.3 12.3l-0.4-0.8H28.2L6.3 50l21.8 38.5h43.7L93.7 50 72.3 12.3zM33.3 25.3L9.9 47.7l18.6-32.8L33.3 25.3zM70.7 14.8l6.4 35.7L36.9 25.8 70.7 14.8zM35.5 27.3l41 25.2-41 23.3V27.3zM77 54.5l-7.2 30.8-32.6-8.1L77 54.5zM33.5 75L9.9 50.5l23.6-22.7V75zM33.2 77.6l-4.6 7.7L11.5 55.1 33.2 77.6zM35 78.6l31.4 7.9H30.2L35 78.6zM79.3 53.3l11.6-2.5L72.1 84 79.3 53.3zM90.7 48.9l-11.4 2.5-5.9-33.1L90.7 48.9zM35 24.3l-5-10.8h38.2L35 24.3z" fill="#ffffff" data-fill-palette-color="accent"></path></svg></g></svg></g><g><rect width="36.99738362415832" height="3.510511513950049" y="49.287130902461506" x="161.35866501584167" fill="#ffffff" data-fill-palette-color="secondary"></rect><rect width="36.99738362415832" height="3.510511513950049" y="49.287130902461506" x="47.29746815999998" fill="#ffffff" data-fill-palette-color="secondary"></rect></g></svg></g></svg></g><g><path d="M95.005 57.433A122.216 122.216 0 0 1 300.515 57.433L297.022 57.433A118.723 118.723 0 0 0 98.498 57.433L95.005 57.433M95.005 189.767A122.216 122.216 0 0 0 300.515 189.767L297.022 189.767A118.723 118.723 0 0 1 98.498 189.767L95.005 189.767" fill="#ffffff" stroke="transparent" data-fill-palette-color="tertiary"></path></g></svg></g><defs></defs></svg><rect width="395.52" height="247.2" fill="none" stroke="none" visibility="hidden"></rect></g></svg></g></svg>